<svg width="30" height="31" viewBox="0 0 30 31" fill="none" xmlns="http://www.w3.org/2000/svg">
<path d="M3.96967 24.7197C3.67678 25.0126 3.67678 25.4874 3.96967 25.7803C4.26256 26.0732 4.73744 26.0732 5.03033 25.7803L3.96967 24.7197ZM10.5 19.25L11.0303 18.7197C10.7374 18.4268 10.2626 18.4268 9.96967 18.7197L10.5 19.25ZM13.5 22.25L12.9697 22.7803C13.2626 23.0732 13.7374 23.0732 14.0303 22.7803L13.5 22.25ZM20.25 15.5L20.7803 14.9697C20.4874 14.6768 20.0126 14.6768 19.7197 14.9697L20.25 15.5ZM25.7197 22.0303C26.0126 22.3232 26.4874 22.3232 26.7803 22.0303C27.0732 21.7374 27.0732 21.2626 26.7803 20.9697L25.7197 22.0303ZM5.03033 25.7803L11.0303 19.7803L9.96967 18.7197L3.96967 24.7197L5.03033 25.7803ZM9.96967 19.7803L12.9697 22.7803L14.0303 21.7197L11.0303 18.7197L9.96967 19.7803ZM14.0303 22.7803L20.7803 16.0303L19.7197 14.9697L12.9697 21.7197L14.0303 22.7803ZM19.7197 16.0303L25.7197 22.0303L26.7803 20.9697L20.7803 14.9697L19.7197 16.0303ZM7.5 4.25H22.5V2.75H7.5V4.25ZM26.25 8V23H27.75V8H26.25ZM22.5 26.75H7.5V28.25H22.5V26.75ZM3.75 23V8H2.25V23H3.75ZM7.5 26.75C5.42893 26.75 3.75 25.0711 3.75 23H2.25C2.25 25.8995 4.6005 28.25 7.5 28.25V26.75ZM26.25 23C26.25 25.0711 24.5711 26.75 22.5 26.75V28.25C25.3995 28.25 27.75 25.8995 27.75 23H26.25ZM22.5 4.25C24.5711 4.25 26.25 5.92893 26.25 8H27.75C27.75 5.1005 25.3995 2.75 22.5 2.75V4.25ZM7.5 2.75C4.6005 2.75 2.25 5.1005 2.25 8H3.75C3.75 5.92893 5.42893 4.25 7.5 4.25V2.75ZM11.25 10.25C11.25 11.0784 10.5784 11.75 9.75 11.75V13.25C11.4069 13.25 12.75 11.9069 12.75 10.25H11.25ZM9.75 11.75C8.92157 11.75 8.25 11.0784 8.25 10.25H6.75C6.75 11.9069 8.09314 13.25 9.75 13.25V11.75ZM8.25 10.25C8.25 9.42157 8.92157 8.75 9.75 8.75V7.25C8.09314 7.25 6.75 8.59314 6.75 10.25H8.25ZM9.75 8.75C10.5784 8.75 11.25 9.42157 11.25 10.25H12.75C12.75 8.59314 11.4069 7.25 9.75 7.25V8.75Z" fill="#343434"/>
</svg>
