<svg width="24" height="24" viewBox="0 0 24 24" fill="none" xmlns="http://www.w3.org/2000/svg">
<path d="M19.2004 13.6857C20.4677 14.6326 21.6004 17.0167 21.6004 18.4857C21.6004 18.9433 21.2665 19.3143 20.8546 19.3143H20.4004M15.6004 9.8045C16.4202 9.33025 16.9718 8.44383 16.9718 7.42859C16.9718 6.41334 16.4202 5.52693 15.6004 5.05268M3.14616 19.3143H16.2832C16.6951 19.3143 17.029 18.9433 17.029 18.4857C17.029 15.6091 14.6257 13.2771 9.71468 13.2771C4.80366 13.2771 2.40039 15.6091 2.40039 18.4857C2.40039 18.9433 2.73428 19.3143 3.14616 19.3143ZM12.4575 7.42859C12.4575 8.94343 11.2295 10.1714 9.71468 10.1714C8.19984 10.1714 6.97182 8.94343 6.97182 7.42859C6.97182 5.91375 8.19984 4.68573 9.71468 4.68573C11.2295 4.68573 12.4575 5.91375 12.4575 7.42859Z" stroke="#343434" stroke-width="1.5" stroke-linecap="round"/>
</svg>
