<?xml version="1.0" standalone="no"?>
<!DOCTYPE svg PUBLIC "-//W3C//DTD SVG 20010904//EN"
 "http://www.w3.org/TR/2001/REC-SVG-20010904/DTD/svg10.dtd">
<svg version="1.0" xmlns="http://www.w3.org/2000/svg"
 width="265.000000pt" height="355.000000pt" viewBox="0 0 265.000000 355.000000"
 preserveAspectRatio="xMidYMid meet">

<g transform="translate(0.000000,355.000000) scale(0.100000,-0.100000)"
fill="#000000" stroke="none">
<path d="M1925 2056 c-149 -37 -164 -102 -32 -145 36 -12 37 -14 37 -59 -1
-127 -26 -411 -56 -627 l-6 -40 59 -30 c85 -44 251 -145 318 -195 53 -39 58
-41 52 -19 -63 235 -117 632 -117 867 0 80 2 93 18 98 9 3 36 14 60 25 37 17
43 23 40 46 -2 14 -14 34 -28 44 -61 44 -236 62 -345 35z"/>
<path d="M1795 898 c-40 -120 -94 -248 -168 -403 -87 -180 -92 -193 -91 -252
3 -116 75 -211 178 -233 33 -7 160 -10 356 -8 l305 3 -3 107 c-6 245 -93 417
-306 606 -58 51 -196 153 -254 186 -7 4 -14 2 -17 -6z"/>
</g>
</svg>
