<svg width="140" height="38" viewBox="0 0 140 38" fill="none" xmlns="http://www.w3.org/2000/svg">
<g id="GenieLabs Logo - White 7">
<g id="Group">
<path id="Vector" d="M16.7373 22.6814C17.3259 22.6814 17.6291 22.9891 17.6291 23.6136V31.9947C17.6291 32.5106 17.3437 32.773 16.987 32.9812C15.7832 33.7053 13.7144 34.3298 10.6736 34.3298C5.33225 34.3298 1.7832 31.6869 1.7832 24.8355C1.7832 17.984 5.38575 15.3411 11.0125 15.3411C13.7233 15.3411 15.587 16.038 16.6571 16.7712C17.1921 17.1332 17.3437 17.4228 17.1208 18.0202L16.2023 20.3553C15.9705 20.9526 15.587 21.0341 14.9004 20.7716C14.3386 20.5635 13.3399 20.2286 11.9399 20.2286C8.72078 20.2286 7.44562 21.3418 7.44562 24.8445C7.44562 28.3472 8.77429 29.4604 11.4851 29.4604C11.9934 29.4604 12.4838 29.4061 12.787 29.3066V26.7633H11.3514C10.7628 26.7633 10.4596 26.4556 10.4596 25.8582V23.6226C10.4596 22.9981 10.7628 22.6904 11.3514 22.6904H16.7463L16.7373 22.6814Z" fill="#343434"/>
<path id="Vector_2" d="M25.6098 26.9352V29.3518H31.8964C32.5385 29.3518 32.8149 29.6414 32.8149 30.2841V33.0898C32.8149 33.7415 32.5295 34.022 31.8964 34.022H21.062C20.42 34.022 20.1436 33.7324 20.1436 33.0898V16.5901C20.1436 15.9385 20.4289 15.6579 21.062 15.6579H31.7448C32.3869 15.6579 32.6633 15.9475 32.6633 16.5901V19.3959C32.6633 20.0476 32.3779 20.3281 31.7448 20.3281H25.6098V22.4822H31.3614C31.9499 22.4822 32.2531 22.79 32.2531 23.4145V26.0392C32.2531 26.6366 31.9499 26.9443 31.3614 26.9443H25.6098V26.9352Z" fill="#343434"/>
<path id="Vector_3" d="M50.4531 33.0898C50.4531 33.7415 50.1678 34.022 49.5346 34.022H45.9856C45.3436 34.022 45.1206 33.8682 44.8888 33.4518L40.3945 25.1522V33.0898C40.3945 33.7415 40.1092 34.022 39.4761 34.022H35.9448C35.3028 34.022 35.0264 33.7324 35.0264 33.0898V16.5901C35.0264 15.9385 35.3117 15.6579 35.9448 15.6579H39.4939C40.1359 15.6579 40.3589 15.8118 40.5907 16.2281L45.085 24.5277V16.5901C45.085 15.9385 45.3703 15.6579 46.0034 15.6579H49.5346C50.1767 15.6579 50.4531 15.9475 50.4531 16.5901V33.0898Z" fill="#343434"/>
<path id="Vector_4" d="M69.2416 26.9352V29.3518H75.5283C76.1703 29.3518 76.4467 29.6414 76.4467 30.2841V33.0898C76.4467 33.7415 76.1614 34.022 75.5283 34.022H64.6939C64.0518 34.022 63.7754 33.7324 63.7754 33.0898V16.5901C63.7754 15.9385 64.0607 15.6579 64.6939 15.6579H75.3767C76.0187 15.6579 76.2951 15.9475 76.2951 16.5901V19.3959C76.2951 20.0476 76.0098 20.3281 75.3767 20.3281H69.2416V22.4822H74.9932C75.5818 22.4822 75.8849 22.79 75.8849 23.4145V26.0392C75.8849 26.6366 75.5818 26.9443 74.9932 26.9443H69.2416V26.9352Z" fill="#343434"/>
<path id="Vector_5" d="M79.5675 33.8592V15.8209H81.2439V32.402H90.7675V33.8592H79.5586H79.5675Z" fill="#9A54FF"/>
<path id="Vector_6" d="M91.6593 33.8592L98.6415 15.8209H100.541L107.354 33.8592H105.624L103.573 28.1934H95.4759L93.3803 33.8592H91.6504H91.6593ZM96.0555 26.7452H103.02L99.5421 17.278L96.0644 26.7452H96.0555Z" fill="#9A54FF"/>
<path id="Vector_7" d="M109.753 33.8592V15.8209H116.173C117.208 15.8209 118.099 15.9295 118.84 16.1467C119.58 16.3639 120.186 16.6716 120.65 17.0699C121.122 17.4681 121.461 17.9478 121.675 18.509C121.889 19.0701 121.996 19.6856 121.996 20.3463C121.996 21.007 121.916 21.5319 121.747 21.9845C121.586 22.4461 121.372 22.8262 121.105 23.1339C120.837 23.4417 120.543 23.686 120.204 23.858C119.865 24.03 119.517 24.1567 119.152 24.22V24.2743C120.382 24.4554 121.301 24.9532 121.907 25.7496C122.505 26.5552 122.808 27.5507 122.808 28.7545C122.808 29.6867 122.665 30.4832 122.38 31.1349C122.094 31.7865 121.693 32.3115 121.185 32.7097C120.676 33.108 120.061 33.3976 119.348 33.5786C118.634 33.7506 117.859 33.8411 117.012 33.8411H109.753V33.8592ZM111.429 23.7856H115.674C116.548 23.7856 117.279 23.7132 117.868 23.5593C118.456 23.4055 118.938 23.1882 119.303 22.8986C119.669 22.609 119.927 22.247 120.079 21.8216C120.24 21.3962 120.311 20.9074 120.311 20.3553C120.311 19.8032 120.222 19.3054 120.043 18.9162C119.865 18.5271 119.571 18.2103 119.178 17.9659C118.786 17.7215 118.269 17.5496 117.636 17.441C117.003 17.3324 116.227 17.278 115.299 17.278H111.42V23.7947L111.429 23.7856ZM111.429 32.402H115.701C116.619 32.402 117.422 32.3567 118.108 32.2753C118.795 32.1938 119.357 32.0219 119.803 31.7594C120.248 31.4969 120.578 31.1349 120.801 30.6552C121.024 30.1755 121.131 29.551 121.131 28.7636C121.131 27.9761 121.006 27.4059 120.757 26.9443C120.507 26.4827 120.159 26.1298 119.696 25.8763C119.232 25.6229 118.688 25.451 118.046 25.3604C117.404 25.2699 116.691 25.2247 115.897 25.2247H111.429V32.3929V32.402Z" fill="#9A54FF"/>
<path id="Vector_8" d="M126.909 28.474C126.971 29.2795 127.15 29.9583 127.435 30.5195C127.721 31.0806 128.095 31.5332 128.55 31.8861C129.005 32.2391 129.522 32.4926 130.119 32.6464C130.708 32.8093 131.341 32.8817 132.019 32.8817C132.812 32.8817 133.49 32.7822 134.07 32.5831C134.649 32.3839 135.113 32.1124 135.478 31.7685C135.844 31.4246 136.112 31.0263 136.281 30.5828C136.45 30.1303 136.54 29.6596 136.54 29.1528C136.54 28.4468 136.379 27.8857 136.067 27.4512C135.755 27.0168 135.345 26.6638 134.845 26.3832C134.346 26.1117 133.766 25.8854 133.115 25.7225C132.464 25.5596 131.796 25.3967 131.118 25.2338C130.431 25.0709 129.771 24.8898 129.121 24.6726C128.47 24.4554 127.899 24.1658 127.391 23.7947C126.891 23.4236 126.481 22.953 126.169 22.3828C125.857 21.8035 125.696 21.0794 125.696 20.1925C125.696 19.577 125.821 18.9706 126.08 18.3913C126.338 17.803 126.713 17.2871 127.212 16.8346C127.712 16.3821 128.345 16.0291 129.103 15.7576C129.861 15.4951 130.735 15.3593 131.715 15.3593C132.696 15.3593 133.597 15.5041 134.346 15.7847C135.095 16.0653 135.719 16.4545 136.21 16.9523C136.7 17.441 137.075 18.0203 137.324 18.6719C137.574 19.3236 137.699 20.0205 137.699 20.7536H136.094C136.094 20.0658 135.978 19.4774 135.737 18.9706C135.496 18.4728 135.175 18.0565 134.765 17.7397C134.355 17.4229 133.882 17.1876 133.356 17.0337C132.83 16.8799 132.286 16.8074 131.724 16.8074C130.868 16.8074 130.146 16.9251 129.566 17.1695C128.978 17.4139 128.514 17.7216 128.175 18.1108C127.828 18.4909 127.587 18.9253 127.462 19.3869C127.328 19.8576 127.301 20.3192 127.391 20.7898C127.489 21.3781 127.721 21.8397 128.086 22.1927C128.452 22.5457 128.889 22.8353 129.415 23.0616C129.941 23.2878 130.521 23.4689 131.154 23.6137C131.787 23.7585 132.429 23.9033 133.089 24.0662C133.749 24.2291 134.382 24.4102 135.006 24.6274C135.621 24.8446 136.174 25.1342 136.647 25.5053C137.128 25.8764 137.503 26.347 137.797 26.9172C138.082 27.4965 138.225 28.2206 138.225 29.0804C138.225 30.7548 137.654 32.0491 136.522 32.9632C135.389 33.8773 133.793 34.3389 131.733 34.3389C130.815 34.3389 129.959 34.2213 129.165 33.9769C128.371 33.7325 127.694 33.3705 127.114 32.8727C126.535 32.3839 126.089 31.7685 125.768 31.0444C125.447 30.3204 125.286 29.4605 125.286 28.474H126.918H126.909Z" fill="#9A54FF"/>
<path id="Vector_9" d="M59.9501 33.117C59.9501 29.9673 58.0864 27.9581 54.9386 25.9578C53.9309 29.2885 52.6201 30.6371 52.6201 31.7504C52.6201 32.9451 53.4138 33.9678 54.5908 33.9678H59.959V33.117H59.9501Z" fill="#343434"/>
<path id="Vector_10" d="M41.607 4.60687C41.2949 5.21327 41.1701 5.24948 41.2503 6.36273C41.2949 6.98724 41.821 7.58459 42.4274 7.6751C43.5599 7.85612 44.4873 7.43978 45.272 6.78812C46.235 5.99165 47.1535 5.12277 48.1076 4.29914C48.607 3.87375 49.1242 3.44836 49.686 3.11348C50.4083 2.67904 51.193 2.61568 51.942 3.11348C52.7178 3.62938 52.9943 4.38965 52.9229 5.30378C52.8427 6.35368 52.3611 7.25876 51.9242 8.1729C51.6834 8.6888 51.3802 9.17754 51.1573 9.70249C50.9255 10.2455 50.8095 10.9063 50.9879 11.4312C51.0057 11.4855 51.0771 11.5217 51.1306 11.5036C51.8618 11.2773 52.6197 11.0511 53.3242 10.7343C54.965 9.98307 56.0707 10.7976 56.7484 11.9924C56.9178 12.282 57.1675 13.1509 57.1675 13.1509L57.0337 13.1961C57.0337 13.1961 56.8197 12.7074 56.7127 12.5626C56.0974 11.757 55.0095 11.8385 54.0287 12.0829C53.3866 12.2458 52.7624 12.5354 52.1471 12.7888C51.6478 12.9879 51.1751 13.2504 50.6669 13.4405C50.0962 13.6577 49.4274 13.7211 48.9191 13.531C48.5624 13.3952 48.3216 13.0694 48.2592 12.6983C48.063 11.6213 48.4643 10.7252 48.9637 9.87446C49.5076 8.95127 50.0694 8.03714 50.6044 7.1049C50.7917 6.77907 50.9255 6.41704 51.0236 6.055C51.1216 5.72917 50.9968 5.43049 50.7115 5.24043C50.4083 5.04131 50.0872 5.07751 49.8554 5.31283C49.3739 5.78348 48.9102 6.28127 48.4911 6.80622C47.4032 8.16385 46.2529 9.45812 44.7637 10.3813C43.8363 10.9606 42.8287 11.1868 41.7497 11.0239C40.0465 10.7705 38.9318 9.11419 39.342 7.41263C39.6274 6.22697 40.3497 5.34904 41.3662 4.72453C41.4197 4.68833 41.4822 4.67928 41.6159 4.62497L41.607 4.60687Z" fill="#9A54FF"/>
<path id="Vector_11" d="M61.546 16.7441H61.4479C61.5549 18.147 60.3689 18.5452 58.7549 18.7081C58.7549 18.8077 58.7549 18.9072 58.7638 18.9977C58.8886 18.9796 59.0135 18.9615 59.1472 18.9434C60.3956 18.7353 61.7689 18.2284 61.5549 16.7441H61.546Z" fill="#9A54FF"/>
<path id="Vector_12" d="M58.6038 26.2022C57.0611 25.0256 55.3668 24.2653 53.7439 23.3059C53.1286 22.9077 52.5222 22.5547 52.2458 21.9211C52.1121 21.5681 52.2101 21.2152 52.4152 20.8712C53.0394 19.8847 54.3503 19.5951 55.456 19.405C55.4917 19.405 55.5273 19.3959 55.563 19.3869C55.563 19.2421 55.5719 19.0792 55.5808 18.9253C54.5465 19.0249 53.521 19.2059 52.6203 19.7761C51.1668 20.826 51.0955 22.2922 52.4866 23.4507C53.2178 24.0843 54.0471 24.5821 54.8407 25.0889C57.8547 26.9353 60.5477 29.2432 60.6191 33.0808V33.9678H61.5554C62.028 33.9678 62.3936 33.5424 62.3401 33.0627C62.0369 30.438 60.6012 27.6503 58.6038 26.2022Z" fill="#9A54FF"/>
</g>
<path id="Vector_13" d="M58.3538 19.7399C58.3003 18.9615 58.2736 18.1379 58.2736 17.26C58.9245 17.1242 59.3704 16.8708 59.3704 16.5811C59.3704 16.1467 58.3895 15.7847 57.1857 15.7847C55.9819 15.7847 55.001 16.1376 55.001 16.5811C55.001 16.8708 55.4468 17.1242 56.0978 17.26C56.0978 18.2465 56.0532 19.1697 55.9908 20.0205C55.8927 21.3328 55.75 22.5094 55.5538 23.5322C55.5984 23.5503 55.6341 23.5774 55.6787 23.6046C56.7933 24.211 57.9437 24.8446 59.0137 25.6591C59.1475 25.7587 59.2634 25.8673 59.3882 25.9669C58.9245 24.383 58.5411 22.3465 58.3717 19.7489L58.3538 19.7399Z" fill="#343434"/>
</g>
</svg>
