<svg width="22" height="22" viewBox="0 0 22 22" fill="none" xmlns="http://www.w3.org/2000/svg">
<path d="M2.75 9.5486C2.75 6.61748 2.75 5.15192 3.09606 4.65888C3.44211 4.16583 4.82013 3.69413 7.57617 2.75073L8.10125 2.57099C9.5379 2.07922 10.2562 1.83334 11 1.83334C11.7438 1.83334 12.4621 2.07922 13.8988 2.57099L14.4238 2.75073C17.1799 3.69413 18.5579 4.16583 18.9039 4.65888C19.25 5.15192 19.25 6.61748 19.25 9.5486C19.25 9.99135 19.25 10.4715 19.25 10.9921C19.25 16.1603 15.3643 18.6684 12.9263 19.7333C12.265 20.0222 11.9343 20.1667 11 20.1667C10.0657 20.1667 9.73501 20.0222 9.07368 19.7333C6.63571 18.6684 2.75 16.1603 2.75 10.9921C2.75 10.4715 2.75 9.99135 2.75 9.5486Z" stroke="#40B059" stroke-width="1.5"/>
<path d="M8.7085 11.3667L10.018 12.8333L13.2918 9.16666" stroke="#40B059" stroke-width="1.5" stroke-linecap="round" stroke-linejoin="round"/>
</svg>
