<svg width="194" height="366" viewBox="0 0 194 366" fill="none" xmlns="http://www.w3.org/2000/svg">
<path d="M175.455 212.331C170.765 201.289 164.923 190.704 158.089 180.815C151.657 171.489 144.207 162.511 135.551 155.168C146.726 151.121 156.829 145.386 165.378 138.311C182.959 123.759 194.027 103.418 194 80.8802C194 58.342 182.959 38.0014 165.378 23.4494C147.771 8.92416 123.625 0 96.9866 0C70.3749 0 46.2288 8.92416 28.6216 23.503C11.0413 38.055 0 58.3956 0 80.9338C0 103.472 11.0413 123.813 28.6216 138.365C37.1706 145.44 47.3007 151.175 58.476 155.221C49.7931 162.564 42.3697 171.542 35.9378 180.842C29.104 190.704 23.2618 201.289 18.5719 212.357C16.2672 217.771 14.2304 223.318 12.5153 228.973C10.7465 234.681 8.38817 241.14 9.96933 247.17C11.2557 252.074 15.5972 256.442 20.9838 256.013C25.8345 255.611 29.2916 251.538 31.1408 247.357C36.179 235.968 33.4991 220.853 26.1293 211.098C25.8077 210.669 25.4325 210.374 25.0305 210.214C29.3988 200.566 34.6783 191.32 40.5741 182.771C46.2823 174.517 52.741 166.96 59.3604 159.429C53.4646 177.706 49.927 197.055 47.5687 216.002C46.8987 221.389 46.3627 226.802 45.9072 232.216C45.532 236.745 45.2372 241.461 46.3359 245.937C48.4263 254.406 55.2065 259.444 63.1659 262.151C65.5242 262.954 67.9094 263.625 70.3213 264.187C69.9461 268.877 70.0801 273.728 70.0801 278.418C70.0801 283.563 70.0801 288.709 70.1069 293.854C70.1069 304.145 70.1605 314.463 70.2141 324.754C70.2141 330.998 70.3749 337.751 68.6061 343.835C63.1659 343.352 57.6184 343.513 52.2318 344.478C47.6223 345.309 41.6461 346.461 39.6361 351.339C37.8942 355.546 40.3061 360.102 43.79 362.541C47.5687 365.194 52.473 365.569 56.8413 364.39C67.0518 361.576 72.5456 352.276 74.5556 342.495C75.7079 336.894 75.708 331.132 75.708 325.45C75.708 319.045 75.6812 312.667 75.6544 306.262C75.6275 299.16 75.6008 292.059 75.574 284.957C75.5472 278.444 75.7883 271.718 75.2792 265.179C89.0808 267.484 103.606 266.358 116.925 262.66C116.845 262.874 116.791 263.115 116.791 263.356C116.041 270.458 116.389 277.828 116.362 284.957C116.336 292.059 116.309 299.16 116.282 306.262C116.255 312.667 116.228 319.045 116.228 325.45C116.228 331.132 116.228 336.894 117.381 342.495C119.391 352.303 124.911 361.603 135.095 364.39C139.463 365.596 144.368 365.194 148.146 362.541C151.657 360.102 154.042 355.546 152.3 351.339C150.29 346.488 144.287 345.309 139.705 344.478C134.318 343.513 128.797 343.352 123.33 343.835C121.562 337.751 121.696 330.998 121.722 324.754C121.776 314.463 121.803 304.145 121.829 293.854C121.829 288.709 121.856 283.563 121.856 278.418C121.856 273.326 122.071 268.073 121.535 263.008C121.454 262.285 121.16 261.829 120.758 261.481C128.878 258.881 137.319 255.263 143.617 249.448C150.585 243.016 153.211 234.735 152.756 225.382C152.22 214.233 149.138 202.844 146.19 192.124C143.162 181.163 139.437 170.39 135.042 159.911C141.5 167.281 147.825 174.678 153.399 182.771C159.295 191.32 164.601 200.566 168.943 210.214C168.567 210.401 168.192 210.669 167.844 211.098C160.474 220.853 157.767 235.968 162.832 247.357C164.682 251.538 168.139 255.611 172.989 256.013C178.349 256.442 182.717 252.074 184.004 247.17C185.585 241.167 183.227 234.708 181.458 228.973C179.716 223.345 177.706 217.798 175.401 212.357L175.455 212.331ZM26.9601 242.346C26.1293 245.535 23.7174 251.19 19.5099 250.386C13.8016 249.314 14.7932 241.274 15.7044 237.334C17.3927 230.099 19.6975 222.916 22.5382 215.922C27.3085 223.801 29.3452 233.234 26.9601 242.319V242.346ZM65.3098 350.963C61.7187 356.109 52.5802 362.514 46.6039 357.02C42.1285 352.893 48.9355 351.097 52.1782 350.427C56.8413 349.463 61.5311 349.221 66.2478 349.516C65.953 350.025 65.6582 350.508 65.3098 350.99V350.963ZM139.839 350.427C143.081 351.097 149.888 352.893 145.413 357.02C139.437 362.541 130.298 356.136 126.707 350.963C126.385 350.481 126.064 349.999 125.769 349.489C130.486 349.195 135.176 349.463 139.839 350.401V350.427ZM6.43183 80.9338C6.43183 60.5664 16.3744 42.0481 32.7487 28.4608C49.0963 14.9004 71.8221 6.43183 96.9866 6.43183C122.151 6.43183 144.904 14.9004 161.251 28.4608C177.599 42.0213 187.541 60.5396 187.568 80.9338C187.568 101.301 177.626 119.82 161.251 133.407C144.904 146.967 122.178 155.436 96.9866 155.436C71.8221 155.436 49.0695 146.967 32.7219 133.407C16.3744 119.846 6.43183 101.328 6.40503 80.9338H6.43183ZM143.215 241.006C138.579 247.491 130.941 251.216 123.705 254.057C107.036 260.596 88.6252 261.909 71.1521 258.211C63.9699 256.683 55.2869 254.03 52.3658 246.5C50.8114 242.48 50.9454 237.978 51.2134 233.743C51.5082 229.027 51.9906 224.337 52.5266 219.674C53.7593 208.874 55.5013 198.154 57.6988 187.488C59.7892 177.331 62.5763 167.415 65.1758 157.392C75.1452 160.286 85.8381 161.868 96.9866 161.868C107.304 161.868 117.22 160.501 126.546 158.035C126.6 158.169 126.653 158.33 126.734 158.464C126.868 158.679 127.029 158.893 127.189 159.081C127.377 159.402 127.591 159.75 127.779 160.072C127.993 160.447 128.235 160.849 128.422 161.251C128.69 161.841 128.958 162.404 129.307 162.966C129.467 163.234 129.655 163.529 129.816 163.797C136.757 180.413 141.983 197.671 145.332 215.386C146.94 223.854 148.548 233.502 143.189 241.006H143.215ZM174.544 250.412C170.336 251.19 167.924 245.535 167.093 242.373C164.708 233.314 166.745 223.854 171.515 215.975C174.356 222.97 176.661 230.125 178.349 237.388C179.26 241.327 180.252 249.367 174.544 250.439V250.412Z" fill="#343434"/>
<path d="M66.4296 44.192C64.9288 43.924 63.4549 44.6476 62.5705 45.8536L62.3829 46.1751C62.0077 46.5771 61.6861 47.0059 61.4717 47.5151C60.9357 48.6675 60.7481 50.0878 60.6945 51.3474C60.6677 52.4462 60.7481 53.5182 60.9089 54.5901C60.9089 55.3405 60.9089 56.0909 60.9357 56.8413C60.9893 57.9668 61.3377 59.146 62.0345 60.084C62.9725 61.3435 64.6608 62.0403 66.2152 61.6919C67.8231 61.3167 69.1095 60.2448 69.7795 58.7172C70.2083 57.7524 70.2887 56.6805 70.3423 55.6353C70.4763 55.0189 70.5567 54.4025 70.6103 53.7861C70.7979 51.5886 70.7175 48.9087 69.6991 46.8987C69.0291 45.5588 67.9571 44.4868 66.4296 44.2188V44.192Z" fill="#343434"/>
<path d="M129.54 56.8413C129.594 57.9669 129.942 59.1461 130.639 60.084C131.577 61.3436 133.265 62.0404 134.82 61.692C136.428 61.3168 137.714 60.2448 138.384 58.7173C138.813 57.7525 138.893 56.6805 138.947 55.6353C139.081 55.019 139.161 54.4026 139.215 53.7862C139.402 51.5887 139.322 48.9087 138.304 46.8988C137.634 45.5588 136.562 44.4869 135.034 44.2189C133.533 43.9509 132.059 44.6744 131.175 45.8804L130.987 46.202C130.612 46.604 130.291 47.0328 130.076 47.542C129.54 48.6943 129.353 50.1147 129.299 51.3743C129.272 52.473 129.353 53.545 129.513 54.617C129.513 55.3674 129.513 56.1177 129.54 56.8681V56.8413Z" fill="#343434"/>
</svg>
