<svg width="242" height="456" viewBox="0 0 242 456" fill="none" xmlns="http://www.w3.org/2000/svg">
<path d="M171 314.5C202.2 302.9 176.666 230.333 160 195.5C122.399 202.3 89.9993 196.333 78.4995 192.5C55.2995 292.9 60.8328 314 66.4995 312C91.6995 341.6 146.666 326 171 314.5Z" fill="#D9D9D9" stroke="black"/>
<path d="M218.866 264.866C213.016 251.093 205.728 237.888 197.204 225.552C189.18 213.919 179.887 202.72 169.089 193.56C183.029 188.512 195.632 181.358 206.297 172.532C228.227 154.38 242.033 129.006 242 100.892C242 72.7772 228.227 47.4038 206.297 29.2513C184.333 11.1322 154.213 0 120.983 0C87.7872 0 57.6668 11.1322 35.7033 29.3181C13.7732 47.4706 0 72.844 0 100.959C0 129.073 13.7732 154.447 35.7033 172.599C46.3674 181.425 59.004 188.579 72.9443 193.627C62.113 202.787 52.8529 213.986 44.8297 225.586C36.305 237.888 29.0173 251.093 23.167 264.9C20.292 271.652 17.7513 278.572 15.6118 285.626C13.4054 292.747 10.4636 300.803 12.436 308.325C14.0406 314.443 19.4563 319.892 26.1757 319.357C32.2265 318.856 36.539 313.774 38.8457 308.559C45.1305 294.351 41.7875 275.497 32.5943 263.328C32.1931 262.793 31.7251 262.426 31.2236 262.225C36.6727 250.19 43.2584 238.657 50.6131 227.993C57.7337 217.696 65.7903 208.269 74.0475 198.875C66.6929 221.675 62.2801 245.811 59.3383 269.446C58.5025 276.165 57.8339 282.918 57.2656 289.671C56.7976 295.321 56.4299 301.205 57.8005 306.787C60.4081 317.351 68.8658 323.636 78.7946 327.013C81.7364 328.015 84.7117 328.851 87.7204 329.553C87.2524 335.403 87.4195 341.454 87.4195 347.305C87.4195 353.723 87.4195 360.142 87.4529 366.56C87.4529 379.397 87.5198 392.268 87.5867 405.105C87.5867 412.894 87.7872 421.319 85.5809 428.907C78.7946 428.306 71.8745 428.506 65.1551 429.71C59.4052 430.746 51.9503 432.183 49.443 438.268C47.2701 443.516 50.2788 449.199 54.6247 452.241C59.3383 455.551 65.456 456.019 70.9051 454.548C83.6419 451.038 90.4951 439.438 93.0023 427.236C94.4398 420.249 94.4398 413.061 94.4398 405.974C94.4398 397.984 94.4064 390.028 94.373 382.038C94.3395 373.179 94.3061 364.32 94.2727 355.461C94.2392 347.338 94.5401 338.947 93.9049 330.79C111.121 333.665 129.24 332.261 145.855 327.648C145.755 327.915 145.688 328.216 145.688 328.517C144.752 337.376 145.187 346.569 145.153 355.461C145.12 364.32 145.086 373.179 145.053 382.038C145.019 390.028 144.986 397.984 144.986 405.974C144.986 413.061 144.986 420.249 146.424 427.236C148.931 439.471 155.817 451.071 168.521 454.548C173.97 456.052 180.088 455.551 184.801 452.241C189.18 449.199 192.156 443.516 189.983 438.268C187.476 432.217 179.987 430.746 174.271 429.71C167.551 428.506 160.665 428.306 153.845 428.907C151.639 421.319 151.806 412.894 151.839 405.105C151.906 392.268 151.939 379.397 151.973 366.56C151.973 360.142 152.006 353.723 152.006 347.305C152.006 340.953 152.274 334.401 151.605 328.082C151.505 327.18 151.137 326.611 150.636 326.177C160.765 322.934 171.295 318.421 179.151 311.167C187.843 303.143 191.119 292.814 190.551 281.147C189.883 267.24 186.038 253.032 182.361 239.66C178.583 225.987 173.936 212.548 168.454 199.477C176.511 208.67 184.4 217.897 191.353 227.993C198.708 238.657 205.327 250.19 210.743 262.225C210.275 262.459 209.807 262.793 209.372 263.328C200.179 275.497 196.803 294.351 203.121 308.559C205.427 313.774 209.74 318.856 215.791 319.357C222.477 319.892 227.926 314.443 229.531 308.325C231.503 300.837 228.561 292.78 226.355 285.626C224.182 278.606 221.674 271.686 218.799 264.9L218.866 264.866ZM33.6306 302.308C32.5943 306.286 29.5856 313.34 24.3371 312.337C17.2165 311 18.4534 300.971 19.59 296.056C21.6961 287.03 24.5711 278.071 28.1146 269.346C34.0652 279.174 36.6059 290.942 33.6306 302.274V302.308ZM81.469 437.8C76.9893 444.218 65.5897 452.208 58.1348 445.355C52.552 440.207 61.0432 437.967 65.0882 437.131C70.9051 435.928 76.7553 435.627 82.639 435.994C82.2713 436.63 81.9036 437.231 81.469 437.833V437.8ZM174.438 437.131C178.483 437.967 186.974 440.207 181.391 445.355C173.936 452.241 162.537 444.252 158.057 437.8C157.656 437.198 157.255 436.596 156.887 435.961C162.771 435.593 168.621 435.928 174.438 437.098V437.131ZM8.02321 100.959C8.02321 75.5519 20.4257 52.4517 40.8515 35.5027C61.2438 18.5871 89.5925 8.02321 120.983 8.02321C152.374 8.02321 180.756 18.5871 201.148 35.5027C221.541 52.4183 233.943 75.5184 233.977 100.959C233.977 126.366 221.574 149.466 201.148 166.415C180.756 183.33 152.407 193.894 120.983 193.894C89.5925 193.894 61.2104 183.33 40.8181 166.415C20.4257 149.499 8.02321 126.399 7.98978 100.959H8.02321ZM178.65 300.636C172.867 308.726 163.339 313.373 154.313 316.917C133.52 325.074 110.553 326.712 88.7567 322.098C79.7975 320.193 68.9661 316.883 65.3223 307.489C63.3833 302.475 63.5505 296.859 63.8848 291.577C64.2525 285.693 64.8542 279.843 65.5229 274.026C67.0606 260.554 69.2336 247.182 71.9748 233.876C74.5824 221.206 78.0591 208.837 81.3018 196.335C93.7378 199.945 107.076 201.917 120.983 201.917C133.854 201.917 146.223 200.212 157.857 197.137C157.923 197.304 157.99 197.505 158.091 197.672C158.258 197.939 158.458 198.207 158.659 198.441C158.893 198.842 159.16 199.276 159.394 199.678C159.662 200.146 159.963 200.647 160.197 201.148C160.531 201.884 160.865 202.586 161.3 203.288C161.5 203.622 161.734 203.99 161.935 204.324C170.593 225.051 177.112 246.58 181.291 268.677C183.297 279.241 185.303 291.276 178.617 300.636H178.65ZM217.73 312.37C212.481 313.34 209.473 306.286 208.436 302.341C205.461 291.042 208.002 279.241 213.952 269.413C217.496 278.138 220.371 287.064 222.477 296.123C223.613 301.037 224.85 311.066 217.73 312.404V312.37Z" fill="#343434"/>
<path d="M82.8645 55.1261C80.9924 54.7918 79.1537 55.6944 78.0505 57.1987L77.8165 57.5999C77.3485 58.1013 76.9474 58.6362 76.6799 59.2714C76.0113 60.7089 75.7773 62.4807 75.7104 64.0519C75.677 65.4225 75.7773 66.7597 75.9779 68.0969C75.9779 69.033 75.9779 69.969 76.0113 70.905C76.0782 72.3091 76.5128 73.78 77.3819 74.9501C78.552 76.5213 80.6581 77.3905 82.597 76.9559C84.6028 76.4878 86.2075 75.1506 87.0432 73.2451C87.5781 72.0417 87.6784 70.7045 87.7452 69.4007C87.9124 68.6318 88.0127 67.8629 88.0795 67.094C88.3136 64.3527 88.2133 61.0097 86.9429 58.5025C86.1072 56.831 84.77 55.4938 82.8645 55.1595V55.1261Z" fill="#343434"/>
<path d="M161.591 70.9048C161.658 72.3089 162.093 73.7798 162.962 74.9498C164.132 76.521 166.238 77.3902 168.177 76.9556C170.183 76.4876 171.788 75.1504 172.623 73.2449C173.158 72.0414 173.258 70.7042 173.325 69.4005C173.492 68.6316 173.593 67.8627 173.66 67.0938C173.894 64.3525 173.793 61.0095 172.523 58.5023C171.687 56.8308 170.35 55.4936 168.445 55.1593C166.572 54.825 164.734 55.7276 163.631 57.2319L163.397 57.6331C162.929 58.1345 162.527 58.6694 162.26 59.3046C161.591 60.7421 161.357 62.5139 161.291 64.0851C161.257 65.4557 161.357 66.7929 161.558 68.1301C161.558 69.0661 161.558 70.0022 161.591 70.9382V70.9048Z" fill="#343434"/>
</svg>
